<?xml version="1.0" standalone="no"?>
<!DOCTYPE svg PUBLIC "-//W3C//DTD SVG 20010904//EN"
 "http://www.w3.org/TR/2001/REC-SVG-20010904/DTD/svg10.dtd">
<svg version="1.0" xmlns="http://www.w3.org/2000/svg"
 width="512.000000pt" height="512.000000pt" viewBox="0 0 512.000000 512.000000"
 preserveAspectRatio="xMidYMid meet">

<g transform="translate(0.000000,512.000000) scale(0.100000,-0.100000)"
fill="#000000" stroke="none">
<path d="M2463 5065 c-38 -16 -64 -54 -72 -103 -5 -27 -14 -40 -41 -55 -83
-45 -146 -141 -157 -240 -6 -47 -12 -59 -78 -129 -50 -53 -79 -94 -95 -135
-13 -32 -24 -59 -25 -61 -1 -1 -25 2 -53 8 -43 10 -65 8 -159 -14 -116 -28
-287 -56 -341 -56 -41 0 -104 -31 -131 -66 -69 -87 -39 -226 114 -539 46 -93
91 -194 100 -223 27 -82 17 -159 -34 -265 -54 -113 -57 -173 -14 -245 40 -66
97 -94 179 -90 72 4 126 36 168 97 44 63 26 124 -41 137 -29 6 -37 1 -77 -40
-25 -25 -54 -46 -64 -46 -20 0 -52 29 -52 47 0 6 20 46 45 89 52 92 70 164 62
255 -5 64 -58 222 -78 235 -38 23 -195 422 -187 476 3 21 10 24 83 30 95 9
237 33 303 53 26 8 63 15 82 15 36 0 120 -33 120 -47 0 -5 -12 -44 -26 -88
-76 -239 -92 -337 -60 -364 19 -16 66 -17 93 -3 23 13 25 19 99 266 l48 160
70 68 70 68 219 0 219 0 67 -71 c36 -40 70 -81 74 -93 5 -12 33 -102 63 -201
32 -108 60 -185 71 -192 9 -7 34 -13 54 -13 43 0 69 27 69 70 0 25 -43 180
-95 338 -15 46 -24 86 -21 89 14 15 107 14 152 0 65 -21 199 -45 304 -54 83
-8 85 -9 88 -36 6 -54 -83 -277 -174 -437 -120 -210 -130 -348 -38 -517 49
-91 54 -117 23 -133 -30 -17 -65 -4 -85 29 -17 29 -51 51 -79 51 -18 0 -65
-57 -65 -80 0 -31 63 -114 105 -137 47 -26 127 -31 178 -10 45 19 104 88 117
138 14 52 6 103 -25 154 -60 97 -70 127 -70 205 0 70 3 82 48 170 26 52 59
115 73 140 15 25 37 77 51 115 14 39 39 108 55 155 55 153 41 258 -44 312 -29
20 -57 27 -125 32 -92 8 -239 35 -333 61 -32 10 -73 14 -97 11 l-43 -6 -28 63
c-22 46 -48 81 -105 134 -43 41 -77 81 -77 92 0 35 -40 146 -70 193 -21 34
-42 53 -80 70 -39 18 -50 28 -50 46 0 46 -27 90 -69 111 -47 24 -64 25 -108 6z
m61 -91 c25 -9 19 -24 -9 -24 -24 0 -32 10 -18 23 8 8 8 8 27 1z m75 -195 c31
-17 81 -73 81 -91 0 -3 -24 -1 -52 4 -54 10 -229 5 -260 -7 -52 -21 13 78 67
101 46 20 121 17 164 -7z m22 -244 c68 -8 158 -56 207 -108 23 -26 42 -50 42
-55 0 -5 -24 3 -52 17 -53 26 -55 26 -293 26 -262 0 -272 -2 -337 -63 -32 -29
-35 -24 -12 21 43 85 159 156 274 167 65 6 85 6 171 -5z"/>
<path d="M993 5030 c-30 -12 -42 -38 -118 -263 -37 -108 -71 -197 -75 -197 -4
0 -19 22 -33 49 -32 57 -34 100 -10 193 16 64 16 68 -1 87 -26 29 -72 36 -101
17 -36 -24 -69 -139 -62 -220 9 -114 49 -190 131 -254 l30 -23 -97 -298 c-53
-164 -97 -310 -97 -324 0 -58 78 -89 119 -48 10 10 38 78 62 149 24 72 47 128
51 126 4 -3 8 -155 8 -338 l0 -333 26 -24 26 -24 279 -4 c306 -3 309 -3 323
55 8 29 -17 81 -41 88 -10 2 -118 8 -240 12 l-223 7 0 287 c0 318 -1 322 -67
412 l-35 48 27 79 26 78 62 7 c80 8 151 43 219 109 87 83 125 211 76 257 -47
44 -107 17 -133 -59 -23 -70 -65 -123 -114 -145 -22 -11 -44 -16 -47 -13 -4 3
19 84 51 179 88 269 88 268 54 312 -21 27 -39 31 -76 16z"/>
<path d="M4706 4885 c-51 -27 -166 -117 -191 -149 -72 -95 -74 -235 -3 -312
19 -22 19 -22 -14 -98 -32 -76 -33 -77 -63 -69 -57 15 -148 8 -202 -16 -103
-46 -161 -140 -172 -281 l-6 -84 -77 -41 c-73 -38 -98 -64 -98 -101 0 -22 55
-74 77 -74 26 0 232 120 323 188 159 119 298 285 370 441 24 51 38 71 52 71
50 0 134 64 163 126 42 90 -7 350 -76 398 -29 20 -46 20 -83 1z m21 -275 c5
-53 3 -61 -21 -85 -32 -32 -62 -30 -89 7 -27 36 -17 67 39 126 41 43 46 45 56
29 5 -11 12 -45 15 -77z m-392 -521 c-11 -11 -41 -36 -67 -54 -37 -27 -48 -31
-48 -19 0 28 74 94 105 94 28 0 28 0 10 -21z"/>
<path d="M463 4178 c-18 -18 -44 -59 -58 -90 l-26 -57 3 -433 3 -433 24 -49
c51 -103 135 -155 270 -166 47 -5 206 -14 354 -21 l267 -12 25 23 c33 31 33
79 2 109 -23 20 -39 22 -303 36 -428 22 -430 22 -470 89 -18 29 -19 57 -19
442 l0 411 33 37 c84 95 -17 205 -105 114z"/>
<path d="M4504 3949 c-18 -20 -19 -45 -24 -399 -5 -359 -6 -379 -25 -400 -11
-12 -29 -27 -40 -33 -11 -6 -172 -18 -359 -28 -361 -19 -377 -22 -390 -73 -8
-34 9 -74 39 -88 19 -8 104 -7 357 6 183 9 349 21 368 27 49 13 109 57 147
107 59 78 63 107 63 497 0 341 -1 353 -21 379 -27 34 -86 37 -115 5z"/>
<path d="M2180 3870 c-29 -29 -27 -83 4 -107 33 -27 139 -57 170 -49 15 4 33
20 42 38 15 28 15 34 1 64 -29 60 -175 96 -217 54z"/>
<path d="M2730 3866 c-70 -28 -90 -62 -66 -112 21 -44 52 -51 128 -28 84 25
108 46 108 94 0 71 -64 88 -170 46z"/>
<path d="M4120 3663 c-8 -3 -25 -15 -37 -26 -20 -18 -23 -30 -23 -97 l0 -77
-222 -8 c-214 -7 -222 -8 -245 -31 -29 -29 -30 -77 -2 -105 21 -21 27 -21 301
-18 l280 4 24 28 c23 27 24 35 24 156 0 119 -1 129 -22 148 -26 24 -56 34 -78
26z"/>
<path d="M2256 3539 l-26 -20 0 -519 c0 -605 -3 -584 93 -686 69 -74 132 -103
242 -111 101 -8 177 16 231 71 90 94 107 187 54 293 -50 100 -123 143 -244
143 -64 0 -78 -3 -96 -22 -11 -13 -20 -35 -20 -54 0 -48 38 -74 107 -74 90 0
132 -35 133 -108 0 -35 -6 -49 -29 -73 -27 -27 -35 -29 -103 -29 -127 1 -198
52 -218 160 -6 31 -10 252 -10 529 0 466 0 478 -20 499 -26 28 -60 28 -94 1z"/>
<path d="M2683 3538 c-12 -6 -26 -22 -31 -37 -11 -27 -82 -575 -85 -650 -2
-52 26 -81 77 -81 64 0 69 13 99 265 44 360 51 450 36 476 -21 41 -51 49 -96
27z"/>
<path d="M2059 3251 c-16 -16 -29 -38 -29 -48 0 -51 -33 -126 -72 -164 -37
-35 -41 -45 -41 -86 0 -33 5 -50 18 -59 77 -57 204 73 240 243 15 73 9 102
-27 127 -33 23 -56 20 -89 -13z"/>
<path d="M2844 3268 c-36 -17 -46 -52 -33 -121 24 -136 123 -267 202 -267 40
0 71 32 71 74 0 29 -8 43 -46 79 -45 44 -78 113 -78 165 0 28 -51 82 -77 81
-10 0 -28 -5 -39 -11z"/>
<path d="M3530 2820 c-35 -35 -26 -74 35 -143 192 -216 271 -302 349 -382 l87
-90 133 -3 132 -3 38 -39 c58 -60 117 -84 206 -85 73 0 127 16 182 57 23 17
30 7 36 -50 5 -59 -15 -105 -61 -132 -30 -19 -53 -20 -408 -20 -444 0 -403
-11 -559 143 -112 111 -133 147 -301 502 -50 105 -100 198 -112 207 -31 25
-70 22 -96 -6 -36 -38 -23 -83 96 -326 233 -475 226 -458 231 -545 2 -45 -1
-99 -7 -123 l-12 -43 -39 44 c-116 132 -294 170 -448 97 -117 -55 -195 -156
-223 -288 -7 -31 -15 -60 -18 -64 -14 -16 -131 -26 -202 -17 -41 5 -245 29
-454 54 -209 25 -394 47 -410 50 -59 10 -117 148 -118 279 0 66 4 80 58 196
32 69 102 213 156 321 54 109 108 227 120 264 21 67 21 67 2 94 -27 35 -72 39
-106 9 -15 -13 -63 -102 -111 -203 -46 -99 -103 -215 -126 -257 l-41 -77 -57
-10 c-222 -42 -360 -105 -481 -221 -82 -78 -85 -80 -134 -80 -46 0 -49 1 -43
23 3 12 6 73 6 135 l0 112 124 0 c69 0 136 4 149 9 13 5 37 27 53 49 16 21 48
61 71 88 77 91 253 325 273 364 25 49 25 61 -1 94 -32 41 -68 35 -122 -21 -43
-46 -290 -367 -313 -408 -10 -18 -24 -20 -121 -23 l-110 -3 -12 47 c-26 103
-70 156 -165 200 -132 60 -281 3 -348 -134 l-33 -67 0 -220 c0 -243 2 -253 68
-323 56 -59 114 -72 312 -72 96 0 175 -2 175 -4 0 -3 -9 -42 -20 -88 -51 -212
-10 -401 117 -538 54 -59 85 -81 198 -141 33 -17 67 -37 75 -44 31 -27 117
-64 175 -74 53 -10 119 -3 647 64 323 41 623 75 668 75 79 0 81 -1 91 -27 7
-16 18 -192 26 -403 14 -351 16 -378 37 -420 13 -27 40 -57 65 -75 l43 -30
278 -3 c263 -3 281 -2 318 17 92 47 97 186 10 239 -18 11 -80 32 -138 47 -58
15 -109 30 -113 34 -4 4 15 102 43 217 28 115 63 263 78 328 l27 119 85 17
c171 36 290 99 406 214 115 116 196 274 219 428 l7 46 247 4 246 3 64 34 c158
87 203 261 105 409 -34 51 -36 61 -38 136 -1 69 -5 89 -31 135 -135 244 -504
173 -542 -104 l-6 -45 -76 0 -76 1 -147 162 c-246 271 -303 327 -338 327 -17
0 -39 -9 -50 -20z m1034 -334 c96 -40 113 -169 30 -233 -115 -87 -272 51 -199
175 20 34 79 71 113 72 12 0 37 -6 56 -14z m-3966 -27 c17 -6 41 -26 52 -44
18 -30 20 -49 20 -237 0 -251 2 -248 -117 -248 -65 0 -80 3 -100 22 -23 21
-23 25 -23 223 0 194 1 203 23 236 13 19 38 39 57 46 44 15 50 15 88 2z m867
-406 c-3 -10 -11 -42 -17 -70 -10 -50 -12 -53 -47 -58 -154 -23 -262 -73 -360
-165 -35 -33 -66 -60 -67 -60 -5 0 13 45 32 83 64 124 161 195 354 258 102 34
115 35 105 12z m2262 -204 l45 -32 -6 -51 c-11 -99 -123 -266 -188 -282 -37
-8 -36 5 7 75 35 59 85 226 85 287 0 19 3 34 6 34 3 0 26 -14 51 -31z m-2265
-121 c9 -29 19 -60 23 -69 5 -14 -5 -17 -72 -21 -98 -6 -168 -37 -244 -106
-68 -62 -96 -122 -105 -223 l-7 -72 -27 30 c-26 29 -26 32 -18 108 15 137 84
253 193 323 44 28 188 82 220 82 16 0 24 -11 37 -52z m2558 33 c0 -33 -41
-154 -72 -212 -45 -87 -151 -188 -249 -239 -69 -36 -161 -69 -191 -70 -5 0 -8
9 -8 19 0 13 13 24 43 36 72 28 161 92 234 168 85 88 115 147 147 290 6 24 10
27 51 27 38 0 45 -3 45 -19z m-743 -23 c66 -30 123 -119 123 -192 0 -31 -21
-126 -143 -641 -25 -104 -48 -210 -52 -235 -4 -25 -20 -99 -36 -164 -47 -194
-41 -210 83 -246 40 -12 84 -25 98 -30 16 -5 -49 -8 -170 -7 l-194 2 -7 40
c-3 22 -9 130 -13 240 l-6 200 44 1 c56 2 99 27 127 77 20 36 24 65 35 256 7
119 13 261 14 316 0 120 -14 151 -84 184 -38 19 -55 21 -101 16 -64 -8 -66 -5
-34 65 58 130 188 178 316 118z m-1656 -263 c70 -8 166 -19 215 -25 49 -5 184
-21 299 -35 524 -63 485 -60 635 -41 74 9 162 21 195 26 33 5 61 8 62 6 4 -4
-26 -539 -31 -543 -2 -2 -14 26 -26 64 -47 143 -82 223 -102 234 -19 10 -223
30 -243 23 -10 -4 -42 -8 -475 -64 -293 -38 -360 -46 -572 -66 -169 -17 -179
-16 -225 1 -96 35 -143 105 -143 210 0 96 32 151 120 204 43 26 112 27 291 6z"/>
</g>
</svg>
