<?xml version="1.0" standalone="no"?>
<!DOCTYPE svg PUBLIC "-//W3C//DTD SVG 20010904//EN"
 "http://www.w3.org/TR/2001/REC-SVG-20010904/DTD/svg10.dtd">
<svg version="1.0" xmlns="http://www.w3.org/2000/svg"
 width="529.000000pt" height="738.000000pt" viewBox="0 0 529.000000 738.000000"
 preserveAspectRatio="xMidYMid meet">

<g transform="translate(0.000000,738.000000) scale(0.100000,-0.100000)"
fill="#000000" stroke="none">
<path d="M4294 7305 c3 -38 20 -81 131 -345 25 -58 58 -140 74 -184 17 -43 37
-89 46 -102 13 -21 18 -22 35 -12 11 7 20 20 20 29 0 10 -64 147 -143 306 -78
158 -148 302 -155 318 l-12 30 4 -40z"/>
<path d="M2646 7302 c-29 -47 -76 -146 -76 -160 0 -28 62 -82 94 -82 29 0 86
47 86 72 0 21 -65 151 -83 166 -8 7 -18 9 -21 4z m34 -122 c0 -13 -11 -13 -30
0 -12 8 -11 10 8 10 12 0 22 -4 22 -10z m-10 -41 c0 -11 -3 -11 -24 -3 -23 9
-20 23 4 17 11 -3 20 -9 20 -14z"/>
<path d="M285 7077 c-3 -50 -15 -171 -26 -267 -11 -96 -23 -206 -26 -245 -5
-69 -5 -70 26 -93 38 -28 41 -63 6 -97 -36 -37 -73 -33 -90 9 -11 26 -22 35
-42 38 -24 3 -29 8 -31 37 -2 18 3 66 12 105 25 115 28 160 17 203 -15 56 -43
80 -76 65 -25 -12 -34 -45 -15 -57 5 -3 19 -1 31 6 20 10 21 9 17 -28 -3 -21
-15 -99 -28 -173 -27 -159 -23 -208 20 -267 69 -93 174 -91 189 3 5 30 11 40
28 42 31 4 63 -15 63 -38 0 -10 12 -28 28 -40 53 -42 143 -7 183 72 33 65 34
129 5 248 -15 58 -29 129 -33 159 -6 51 -5 53 15 47 26 -9 39 11 19 31 -13 13
-18 13 -45 -1 -51 -26 -54 -65 -17 -209 36 -137 21 -195 -47 -185 -18 2 -23
-3 -29 -29 -7 -35 -25 -63 -41 -63 -17 0 -58 49 -58 70 0 12 12 37 27 56 l27
36 -18 107 c-28 180 -66 464 -66 503 0 76 -18 44 -25 -45z"/>
<path d="M2921 7103 c-38 -37 -53 -61 -66 -105 -22 -78 -13 -123 36 -169 113
-109 326 -48 363 104 l6 27 -47 -36 c-59 -45 -102 -64 -147 -64 -61 0 -126 75
-126 145 0 30 31 95 54 114 22 18 20 31 -4 31 -11 0 -42 -21 -69 -47z"/>
<path d="M2496 6995 c-83 -73 -138 -134 -130 -147 3 -4 17 5 30 22 16 18 44
35 75 44 73 22 206 30 269 17 61 -13 68 -9 76 41 5 30 2 39 -22 62 -30 28 -43
29 -102 5 -29 -12 -37 -12 -63 4 -17 9 -37 17 -44 17 -8 0 -48 -29 -89 -65z"/>
<path d="M2487 6886 c-67 -23 -119 -56 -87 -56 8 0 50 11 93 25 65 21 97 25
197 25 124 0 160 12 68 24 -107 12 -200 6 -271 -18z"/>
<path d="M2561 6849 c-24 -5 -68 -15 -96 -24 l-52 -15 -7 -52 c-3 -29 -6 -75
-6 -103 0 -27 -7 -63 -15 -79 -8 -15 -15 -40 -14 -55 0 -24 1 -23 13 9 9 24
24 40 48 52 54 26 151 48 236 54 103 8 229 -30 279 -83 21 -22 33 -29 33 -19
0 8 -11 27 -25 42 -20 22 -25 37 -25 83 0 98 -13 126 -73 155 -32 16 -85 29
-137 36 -95 11 -98 11 -159 -1z"/>
<path d="M4593 6644 c-39 -19 -40 -24 -12 -48 18 -15 26 -16 48 -6 24 11 24
13 8 25 -10 7 -15 19 -11 29 7 20 7 20 -33 0z"/>
<path d="M2565 6580 c-22 -5 -70 -22 -107 -39 l-68 -30 -2 -123 c-2 -139 -4
-171 -14 -212 -10 -40 12 -31 54 23 40 53 40 70 2 123 -34 46 -37 69 -15 88
22 18 44 -3 26 -24 -11 -13 -8 -24 18 -63 36 -53 37 -60 15 -111 -21 -50 -60
-89 -113 -113 -73 -32 -37 -34 41 -1 40 16 98 37 128 47 30 9 61 18 68 21 8 2
-3 19 -28 44 -44 44 -49 74 -31 169 6 30 5 51 -3 63 -13 21 4 38 40 38 21 0
48 25 79 74 l18 30 19 -25 c51 -64 58 -69 93 -69 37 0 46 -13 19 -28 -14 -8
-14 -14 0 -69 22 -86 20 -129 -9 -179 -24 -40 -24 -44 -8 -52 10 -5 37 -12 61
-16 l42 -6 -6 67 c-4 54 -1 80 15 127 16 45 18 62 9 73 -8 10 -8 17 1 26 10 9
16 8 27 -8 17 -22 14 -48 -11 -115 -22 -58 -15 -112 22 -164 40 -57 63 -60 63
-7 0 32 -5 44 -25 57 -33 21 -39 47 -21 83 20 37 20 80 2 149 -19 70 -38 98
-84 121 -65 33 -227 49 -317 31z"/>
<path d="M4616 6564 c-22 -21 -16 -40 91 -301 7 -17 43 -16 67 2 19 14 18 16
-6 72 -14 32 -35 90 -48 130 -31 101 -67 135 -104 97z"/>
<path d="M2661 6516 c-15 -18 -3 -46 20 -46 22 0 26 32 5 49 -10 8 -16 8 -25
-3z"/>
<path d="M2599 6423 c-18 -44 -22 -165 -7 -183 27 -31 71 -60 94 -60 13 0 38
13 56 29 32 28 33 32 30 98 -6 134 -30 176 -68 118 -15 -23 -16 -31 -5 -59 30
-73 22 -106 -25 -106 -30 0 -40 35 -24 84 9 27 8 41 -4 70 -18 43 -33 46 -47
9z"/>
<path d="M283 6324 c-4 -11 1 -22 13 -31 16 -12 20 -11 31 3 9 13 10 21 2 31
-16 18 -38 16 -46 -3z"/>
<path d="M2670 6310 c0 -13 5 -20 13 -17 6 2 12 10 12 17 0 7 -6 15 -12 18 -8
2 -13 -5 -13 -18z"/>
<path d="M2980 6235 c0 -14 5 -25 10 -25 6 0 10 11 10 25 0 14 -4 25 -10 25
-5 0 -10 -11 -10 -25z"/>
<path d="M283 5998 c6 -248 12 -308 34 -315 29 -10 30 540 2 558 -41 26 -42
21 -36 -243z"/>
<path d="M4767 6229 c-22 -11 -37 -22 -35 -25 7 -7 71 17 88 32 22 22 -7 18
-53 -7z"/>
<path d="M4770 6185 c-14 -8 -19 -14 -10 -14 8 0 26 6 40 14 14 8 19 14 10 14
-8 0 -26 -6 -40 -14z"/>
<path d="M4805 6166 c-34 -15 -65 -46 -46 -46 19 0 91 40 91 50 0 13 -8 12
-45 -4z"/>
<path d="M2610 6143 c-51 -8 -217 -65 -249 -84 -47 -28 -31 -36 26 -11 57 24
144 47 230 61 81 13 181 -1 305 -44 54 -18 100 -29 103 -24 24 38 -309 120
-415 102z"/>
<path d="M4802 6114 c-26 -18 -28 -50 -8 -99 8 -19 29 -85 47 -147 41 -145
158 -500 169 -512 10 -10 68 23 75 44 3 8 0 31 -5 50 -6 19 -10 41 -10 49 0
26 26 -7 39 -49 12 -41 30 -50 60 -31 12 8 8 22 -24 83 -21 40 -41 89 -45 108
-5 27 -10 34 -25 32 -11 -2 -26 -4 -34 -5 -10 -1 -21 20 -34 63 -78 255 -135
405 -161 422 -15 11 -19 10 -44 -8z"/>
<path d="M2481 6064 c-142 -48 -148 -55 -158 -169 -7 -93 -3 -94 99 -26 65 44
104 85 161 171 39 57 12 63 -102 24z"/>
<path d="M2639 6048 c-12 -24 -30 -56 -41 -71 l-20 -28 41 -17 41 -17 0 -93
c0 -74 3 -94 15 -99 26 -9 30 5 30 105 l0 96 33 10 c17 5 32 14 32 20 0 6 -15
38 -33 71 -42 78 -67 84 -98 23z"/>
<path d="M2775 6069 c-15 -23 8 -59 76 -123 77 -73 124 -106 152 -106 14 0 17
10 17 64 0 35 -3 72 -6 81 -7 19 -65 50 -143 76 -61 22 -87 24 -96 8z"/>
<path d="M2790 5886 c0 -91 -18 -154 -57 -197 l-36 -40 7 -72 c4 -39 11 -89
17 -111 9 -31 8 -42 -5 -54 -12 -13 -20 -13 -45 -2 -29 12 -42 30 -21 30 16 0
32 82 28 147 -3 49 -9 68 -28 88 -47 50 -216 79 -307 52 -52 -16 -98 -13 -87
5 3 5 17 7 30 4 17 -5 24 -2 24 8 0 49 237 20 326 -40 l39 -27 -42 46 c-41 44
-55 79 -69 165 -8 48 -15 52 -34 17 -14 -26 -89 -80 -153 -111 -37 -18 -37
-18 -65 8 -34 31 -118 72 -132 63 -13 -8 -13 -128 1 -142 7 -7 4 -20 -10 -44
-12 -19 -21 -43 -21 -54 0 -13 7 -5 19 21 20 44 35 54 82 54 73 0 97 -45 110
-202 11 -133 35 -199 101 -279 l51 -61 -230 4 c-127 1 -234 6 -238 10 -4 4
-16 68 -26 144 -11 75 -22 140 -25 145 -10 17 -24 9 -40 -23 -14 -27 -15 -41
-5 -99 6 -37 11 -78 11 -91 -1 -23 -1 -23 -21 5 -11 15 -25 27 -30 27 -14 0
-10 -42 6 -70 17 -29 21 -85 5 -60 -5 8 -10 25 -10 36 0 28 -47 74 -75 74 -27
0 -45 36 -45 90 0 47 -16 60 -32 26 -9 -20 -8 -43 2 -98 7 -40 15 -79 17 -85
4 -10 -57 -13 -283 -13 -289 0 -338 5 -301 32 16 12 16 16 3 33 -11 16 -17 17
-29 7 -22 -19 -62 -135 -48 -140 6 -2 20 -21 31 -42 11 -21 24 -41 29 -45 15
-8 76 49 67 63 -4 7 -22 12 -41 12 -19 0 -37 4 -40 10 -8 12 33 22 76 18 54
-5 51 -38 -9 -102 -41 -43 -52 -63 -60 -107 -24 -123 -24 -134 -3 -160 l21
-24 19 25 c11 14 28 43 37 65 9 22 22 52 30 66 8 15 19 60 25 101 6 41 14 79
17 84 4 5 24 17 45 27 32 14 68 17 234 17 l196 0 -6 -92 c-3 -51 -2 -127 4
-168 5 -41 13 -102 17 -135 4 -33 18 -77 30 -96 12 -20 22 -44 22 -53 0 -8 14
-30 30 -48 l31 -33 -21 35 c-21 38 -26 70 -10 70 6 0 10 -6 10 -14 0 -8 12
-24 26 -35 39 -31 99 -28 155 8 72 45 88 113 37 161 -21 20 -21 20 -1 20 76 0
65 -144 -16 -213 -40 -33 -69 -41 -128 -34 -28 3 -40 1 -32 -4 8 -5 31 -9 52
-9 l37 0 0 -98 0 -98 125 -136 c145 -158 218 -214 257 -199 33 12 98 69 98 85
0 7 -39 44 -87 82 -97 75 -363 336 -363 354 0 16 36 -14 211 -178 159 -149
295 -263 376 -316 l45 -30 175 88 c116 59 189 90 220 94 l46 5 -6 84 c-7 98
-36 161 -103 223 -48 44 -148 80 -167 61 -17 -17 -27 -13 -27 9 0 24 35 40 88
40 48 0 129 -47 176 -101 100 -117 104 -312 7 -339 -20 -5 -41 -10 -47 -10 -7
0 -26 -13 -43 -29 -28 -26 -31 -35 -31 -86 l0 -57 53 73 c32 45 65 80 86 90
18 8 45 35 60 60 36 56 32 53 190 144 253 144 399 255 427 322 35 81 8 160
-80 240 -62 57 -116 90 -210 127 -98 39 -106 37 -141 -41 -16 -36 -31 -69 -33
-73 -2 -5 30 -2 69 6 66 13 91 12 77 -1 -2 -3 -31 -10 -64 -16 -92 -17 -204
-81 -387 -222 -52 -40 -87 -60 -114 -63 -58 -8 -83 -24 -105 -69 -11 -22 -31
-52 -44 -66 l-24 -26 33 -44 c68 -89 76 -131 11 -55 -48 55 -176 155 -218 168
-17 6 -38 16 -46 23 -21 18 -140 76 -232 115 -69 28 -81 37 -107 81 -21 33
-39 51 -58 55 -16 4 -38 18 -50 33 -12 15 -25 22 -30 17 -4 -5 -2 -11 5 -13
29 -11 3 -103 -42 -148 -51 -51 -176 -22 -176 41 0 34 16 30 23 -5 7 -36 35
-46 82 -31 64 21 102 90 75 139 -6 12 -4 33 5 64 7 25 17 93 21 151 l7 105
371 3 c365 3 372 3 414 26 24 13 60 38 81 57 45 41 51 42 51 15 0 -25 46 -74
60 -65 15 9 12 45 -3 51 -8 3 -24 19 -36 35 -23 30 -23 32 -6 76 10 24 30 58
46 74 48 49 73 179 34 179 -13 0 -23 -27 -27 -70 -1 -14 -4 28 -7 92 -7 145
-13 153 -104 153 -34 -1 -82 -4 -107 -8 -41 -6 -43 -6 -26 8 32 24 161 49 196
37 28 -10 30 -9 30 13 0 19 -9 27 -47 41 -26 10 -76 40 -110 67 l-63 48 0 -55z
m-341 -210 c7 -8 11 -20 10 -28 -3 -28 2 -39 24 -48 19 -8 17 -9 -14 -9 -30
-1 -43 6 -68 34 -32 37 -36 47 -24 58 12 12 60 7 72 -7z m537 -8 c11 -17 -57
-75 -104 -89 -44 -13 -98 -6 -128 15 -18 14 -18 15 0 35 l19 20 27 -29 c16
-17 36 -30 45 -30 32 0 55 20 55 49 0 15 3 31 7 34 11 12 71 8 79 -5z m-374
-35 c31 -28 21 -40 -39 -46 -59 -6 -84 -1 -44 10 12 3 27 16 32 29 10 28 25
30 51 7z m103 -283 c15 -6 8 -9 -28 -9 -30 -1 -46 3 -42 9 7 12 42 12 70 0z
m5 -44 c0 -18 -32 -26 -54 -14 -23 13 -10 28 25 28 18 0 29 -5 29 -14z m11
-98 c12 -19 0 -28 -36 -28 -37 0 -50 12 -41 37 5 11 14 14 38 9 18 -3 35 -12
39 -18z m-764 -654 c-10 -10 -37 16 -37 34 0 13 4 12 22 -5 12 -13 19 -25 15
-29z"/>
<path d="M3087 5826 c-47 -31 -65 -61 -53 -93 6 -14 8 -14 21 3 9 12 17 15 22
9 5 -6 20 -16 36 -22 34 -16 69 -71 61 -98 -4 -11 -17 -35 -31 -52 -13 -18
-20 -33 -15 -33 27 0 70 96 57 128 -4 9 -9 52 -11 94 -4 112 -9 116 -87 64z
m60 -58 c-3 -8 -6 -5 -6 6 -1 11 2 17 5 13 3 -3 4 -12 1 -19z"/>
<path d="M196 5713 c-16 -134 -6 -176 26 -111 l17 33 0 -37 c1 -31 7 -42 39
-65 20 -15 54 -42 75 -60 41 -37 58 -40 78 -17 23 29 -14 70 -127 141 -15 9
-11 9 21 1 26 -6 60 -29 97 -64 60 -58 98 -70 98 -32 0 44 -151 154 -237 173
-26 5 -33 12 -33 30 0 23 -23 55 -40 55 -4 0 -11 -21 -14 -47z"/>
<path d="M2704 5696 c-10 -8 -16 -17 -13 -20 3 -3 14 3 24 14 21 23 17 26 -11
6z"/>
<path d="M3064 5666 c-26 -20 -7 -51 32 -51 32 0 44 26 24 50 -16 19 -31 19
-56 1z"/>
<path d="M2222 5637 c-22 -23 -22 -24 -4 -40 35 -32 77 -11 70 35 -4 32 -38
34 -66 5z"/>
<path d="M2175 5540 c10 -11 20 -18 23 -15 7 6 -18 35 -31 35 -5 0 -2 -9 8
-20z"/>
<path d="M3146 5528 c-12 -16 -16 -46 -16 -105 0 -45 3 -84 8 -86 4 -3 17 -1
30 4 22 8 23 13 20 106 -3 102 -13 122 -42 81z"/>
<path d="M166 5506 c-8 -20 -19 -36 -25 -36 -5 0 -12 -14 -16 -31 -4 -19 -16
-34 -31 -39 -13 -5 -26 -21 -30 -35 -8 -33 7 -51 33 -37 41 22 113 -17 113
-61 0 -12 11 -35 25 -51 l25 -29 1 -406 c2 -461 9 -633 25 -638 7 -2 20 4 29
14 17 16 18 48 12 528 -3 280 -10 524 -15 540 -5 17 -16 32 -28 34 -23 4 -34
19 -34 48 0 12 -15 33 -37 51 -21 17 -36 33 -33 36 11 11 55 -21 85 -61 42
-58 54 -61 90 -20 17 19 40 37 53 41 16 6 22 14 20 29 -4 31 -36 34 -47 5 -5
-13 -16 -30 -25 -37 -9 -7 -16 -20 -16 -27 0 -19 -16 -18 -24 2 -12 31 -6 44
19 44 23 0 25 3 19 28 -18 72 -73 128 -137 139 -34 5 -37 3 -51 -31z m103 -47
c17 -6 31 -17 31 -25 0 -21 -21 -16 -55 11 -33 27 -26 31 24 14z"/>
<path d="M2285 5520 c-17 -27 27 -150 53 -150 11 0 12 9 7 43 -15 90 -41 137
-60 107z"/>
<path d="M2166 5468 c-9 -47 -7 -188 3 -188 5 0 19 9 32 19 20 16 24 28 23 73
0 71 -10 105 -33 117 -16 9 -20 6 -25 -21z"/>
<path d="M3089 5446 c-12 -55 -8 -86 11 -86 6 0 10 29 10 70 0 39 -2 70 -4 70
-3 0 -10 -24 -17 -54z"/>
<path d="M2251 5438 c-1 -26 4 -50 9 -53 12 -8 12 52 0 80 -6 15 -9 8 -9 -27z"/>
<path d="M3499 5439 c-31 -56 -68 -76 -174 -95 -105 -18 -161 -39 -197 -72
l-28 -26 0 41 c0 24 -7 48 -16 57 -23 24 -26 19 -9 -14 17 -33 20 -66 5 -75
-5 -3 -10 -14 -10 -23 0 -23 -59 -172 -113 -286 -47 -100 -79 -130 -176 -167
-63 -23 -167 -28 -216 -9 -57 22 -132 87 -155 135 -18 37 -21 58 -17 98 3 29
9 60 12 70 7 16 2 18 -61 15 l-69 -3 3 -90 c4 -106 17 -139 84 -206 86 -86
281 -162 372 -145 20 4 76 27 126 52 107 53 132 83 216 247 31 62 66 125 76
140 25 36 83 72 172 109 104 43 122 63 181 211 31 79 28 98 -6 36z m-282 -190
c16 -16 5 -46 -24 -64 -33 -22 -38 -14 -13 18 11 14 20 28 20 31 0 15 -33 4
-55 -19 -30 -29 -33 -18 -4 19 21 27 57 34 76 15z"/>
<path d="M4897 5473 c-12 -11 -8 -29 13 -53 17 -20 20 -37 20 -135 0 -217 56
-415 118 -415 12 0 14 14 9 85 -4 80 -8 90 -46 147 -34 51 -41 68 -35 93 3 16
7 32 7 35 4 22 -17 199 -25 215 -17 31 -45 44 -61 28z"/>
<path d="M1199 5414 c-17 -21 -6 -135 18 -176 18 -31 63 -52 63 -29 0 6 -11
44 -25 86 -15 43 -23 85 -19 99 7 28 -18 42 -37 20z"/>
<path d="M5079 5360 c-68 -46 -94 -68 -88 -74 3 -4 23 6 45 21 30 20 54 28
104 31 36 2 62 1 58 -3 -4 -4 -27 -8 -51 -9 -56 -2 -91 -26 -118 -79 -12 -23
-28 -50 -37 -59 -14 -17 -13 -18 7 -18 14 0 42 18 69 45 41 41 50 45 93 45 26
0 51 -4 54 -10 4 -6 -7 -10 -25 -10 -17 0 -44 -7 -59 -15 -32 -16 -117 -112
-108 -122 11 -10 71 17 102 46 31 29 75 49 75 34 0 -5 -7 -18 -15 -30 -13 -19
-13 -29 0 -94 9 -40 18 -75 20 -78 10 -9 24 15 45 79 28 84 31 151 7 177 -17
19 -16 22 10 68 l26 48 -22 19 c-17 13 -40 18 -85 18 -53 0 -69 -5 -107 -30z"/>
<path d="M980 5310 c0 -50 19 -92 39 -88 9 2 15 10 14 18 -11 97 -15 110 -34
110 -16 0 -19 -7 -19 -40z"/>
<path d="M2256 5333 c-6 -14 -5 -15 5 -6 7 7 10 15 7 18 -3 3 -9 -2 -12 -12z"/>
<path d="M2301 5326 c-16 -19 -11 -46 12 -60 25 -16 52 4 52 40 0 24 -5 30
-26 32 -14 2 -31 -4 -38 -12z"/>
<path d="M3005 5316 c-20 -30 -13 -46 21 -46 28 0 42 25 27 48 -16 26 -31 25
-48 -2z"/>
<path d="M61 5280 c-28 -23 -49 -45 -46 -51 4 -5 30 -21 58 -35 29 -15 66 -37
84 -50 64 -48 102 -21 61 43 -12 21 -27 51 -33 67 -5 17 -24 38 -41 48 l-32
18 -51 -40z"/>
<path d="M1082 5265 c-19 -24 -48 -142 -38 -153 19 -18 104 131 93 162 -9 23
-33 20 -55 -9z"/>
<path d="M2246 5277 c3 -10 9 -15 12 -12 3 3 0 11 -7 18 -10 9 -11 8 -5 -6z"/>
<path d="M2162 5225 l-37 -34 62 -1 c34 0 65 5 68 11 7 11 -31 59 -47 59 -5 0
-25 -16 -46 -35z"/>
<path d="M2295 5221 c11 -5 34 -10 50 -11 l30 -1 -30 -13 -30 -13 40 -6 c60
-10 107 -9 100 3 -13 20 -65 40 -122 45 -40 4 -52 2 -38 -4z"/>
<path d="M792 5181 c-8 -5 -12 -17 -10 -27 3 -17 15 -19 109 -22 94 -2 109 0
130 17 20 18 22 22 9 31 -18 12 -220 13 -238 1z"/>
<path d="M2899 5145 c-8 -9 -47 -27 -85 -40 -65 -23 -78 -24 -209 -18 -124 5
-142 4 -154 -11 -19 -22 -5 -35 69 -65 30 -13 84 -39 119 -58 60 -33 68 -35
130 -30 132 11 201 56 217 144 5 29 2 39 -22 64 -32 33 -43 35 -65 14z"/>
<path d="M111 5093 c28 -77 64 -123 93 -123 28 0 36 16 36 74 l0 43 -68 32
c-38 17 -72 31 -75 31 -4 0 3 -26 14 -57z"/>
<path d="M3271 5139 c-50 -20 -81 -50 -81 -78 0 -52 -52 -132 -158 -245 -58
-61 -123 -133 -145 -161 -36 -46 -38 -50 -19 -53 42 -6 102 19 154 66 29 26
71 59 93 73 158 102 238 195 251 293 6 40 3 50 -20 81 -28 37 -37 40 -75 24z"/>
<path d="M5103 5110 c-38 -23 -38 -26 -19 -159 8 -53 18 -131 21 -174 8 -89
21 -104 74 -86 28 10 31 15 31 52 0 75 -55 387 -68 387 -4 0 -22 -9 -39 -20z"/>
<path d="M1065 5100 c-3 -6 1 -13 10 -16 19 -8 30 0 20 15 -8 14 -22 14 -30 1z"/>
<path d="M2071 5027 c-6 -35 -14 -92 -18 -127 -6 -60 -5 -64 10 -51 10 7 17
20 17 28 0 8 10 37 21 64 19 44 20 54 9 94 -7 25 -16 48 -20 50 -5 3 -13 -23
-19 -58z"/>
<path d="M2149 5083 c-7 -50 36 -113 78 -113 21 0 22 3 17 48 -3 26 -7 53 -10
60 -4 13 -83 17 -85 5z"/>
<path d="M1087 5049 c-31 -18 -49 -78 -54 -179 -6 -96 -6 -96 22 -118 17 -14
42 -22 66 -22 40 0 59 -14 33 -24 -20 -8 -58 1 -109 26 l-40 19 46 -45 c58
-56 91 -66 127 -39 40 30 39 50 -2 67 -46 19 -53 50 -32 140 20 89 20 130 0
161 -18 27 -29 30 -57 14z"/>
<path d="M350 5011 c0 -25 9 -44 35 -72 19 -22 35 -34 35 -27 0 6 -9 22 -21
34 -11 12 -27 39 -34 61 l-14 38 -1 -34z"/>
<path d="M3130 5004 c-6 -14 -10 -33 -10 -42 1 -24 39 26 40 51 0 26 -19 21
-30 -9z"/>
<path d="M2416 4991 c-13 -20 15 -62 51 -77 20 -9 57 -33 82 -54 61 -50 90
-65 103 -52 32 32 -40 118 -136 163 -63 30 -91 35 -100 20z"/>
<path d="M110 4925 c0 -36 8 -76 19 -100 19 -42 90 -100 113 -93 7 3 -5 16
-28 31 -23 14 -51 38 -63 53 -22 28 -28 78 -11 89 6 3 10 -1 10 -9 0 -8 6 -21
14 -28 8 -8 15 -23 18 -34 2 -10 13 -20 25 -22 18 -3 23 3 29 34 9 47 -4 67
-47 75 -19 4 -43 20 -56 36 l-23 28 0 -60z"/>
<path d="M2141 4937 c-22 -27 -42 -89 -35 -110 4 -12 27 -42 51 -67 24 -25 54
-56 67 -70 13 -14 78 -49 145 -79 66 -30 171 -83 233 -117 61 -35 114 -64 117
-64 3 0 -18 21 -47 46 -29 26 -70 71 -90 102 -27 41 -55 66 -106 97 -85 51
-179 139 -203 189 -12 27 -31 45 -65 62 -56 28 -53 28 -67 11z"/>
<path d="M4922 4919 c-9 -17 -27 -44 -40 -59 -23 -30 -56 -99 -49 -106 2 -2
12 14 22 37 10 22 27 45 37 50 10 5 18 15 18 22 0 7 9 29 19 50 23 45 17 50
-7 6z"/>
<path d="M347 4913 c-12 -11 -8 -40 8 -53 13 -11 15 -7 15 24 0 34 -8 44 -23
29z"/>
<path d="M1625 4859 c-135 -83 -275 -180 -289 -202 -12 -19 13 -75 58 -132
l24 -30 20 25 c11 14 44 64 72 112 29 47 87 124 129 170 130 143 130 144 -14
57z"/>
<path d="M4955 4901 c-14 -24 8 -105 36 -133 48 -48 89 -29 89 40 0 25 -6 32
-32 41 -18 6 -44 23 -59 37 -17 16 -29 22 -34 15z"/>
<path d="M2785 4876 c-60 -9 -70 -14 -70 -31 0 -16 7 -20 40 -22 42 -3 125 32
133 55 4 14 -8 14 -103 -2z"/>
<path d="M1636 4749 c-47 -61 -114 -155 -147 -210 -34 -54 -64 -99 -68 -99 -9
0 -93 117 -107 149 -12 28 -16 23 -28 -31 -9 -38 -53 -59 -140 -65 -70 -5 -73
-5 -95 23 -14 18 -21 39 -19 58 4 44 21 42 43 -6 19 -42 22 -43 71 -46 47 -3
54 0 77 27 16 19 28 49 32 81 6 42 9 49 21 39 9 -8 14 -8 14 -1 0 6 -7 15 -15
20 -9 4 -20 21 -24 38 -8 25 -9 26 -10 6 -2 -59 -58 -112 -118 -112 -34 0 -78
28 -105 66 l-20 29 7 -35 c4 -19 9 -62 12 -95 3 -41 11 -67 25 -82 l20 -21
-20 -11 c-12 -6 -35 -11 -53 -11 l-32 0 50 -53 c81 -85 96 -123 101 -254 5
-122 -7 -163 -48 -163 -24 0 -26 13 -4 31 14 11 16 27 11 94 -8 117 -38 205
-93 266 -30 34 -43 57 -39 67 3 9 2 13 -2 8 -21 -20 -40 -108 -32 -144 12 -53
11 -86 -5 -107 -12 -17 -15 -11 -30 56 -28 128 -89 211 -344 472 -58 59 -106
106 -106 105 -1 -2 -16 -20 -34 -41 l-32 -38 0 -128 0 -128 54 -100 c55 -102
124 -206 228 -345 58 -77 59 -78 105 -78 25 0 96 5 158 12 102 10 116 10 139
-5 35 -23 38 -22 85 24 33 33 41 48 41 78 -1 49 -33 190 -65 283 -32 94 -29
140 4 53 12 -33 40 -123 61 -201 44 -157 154 -482 168 -496 20 -20 55 7 190
148 134 139 140 144 179 144 22 0 46 6 52 13 6 8 15 42 20 78 6 35 21 86 35
113 25 47 26 58 26 205 0 138 -2 160 -20 189 -11 18 -20 49 -20 69 0 52 -38
173 -54 173 -8 0 -53 -50 -100 -111z m-78 -390 c90 -44 173 -153 188 -246 7
-44 -12 -73 -47 -73 -20 0 -26 24 -9 35 23 14 -2 88 -54 158 -23 32 -153 124
-162 115 -3 -4 6 -23 20 -45 29 -44 52 -129 62 -225 9 -85 -11 -94 -22 -10 -9
79 -50 218 -80 271 -13 24 -24 48 -24 54 0 15 59 0 128 -34z"/>
<path d="M2500 4840 c37 -29 55 -26 24 4 -8 9 -23 16 -32 16 -13 0 -11 -5 8
-20z"/>
<path d="M4886 4788 c-18 -26 -21 -71 -6 -99 16 -29 67 -51 101 -44 29 6 89
58 89 76 0 5 -21 9 -46 9 -57 0 -78 11 -94 50 -15 36 -24 37 -44 8z"/>
<path d="M4785 4693 c-16 -13 -61 -48 -100 -77 -94 -71 -252 -239 -295 -314
-19 -34 -37 -62 -40 -62 -3 0 -11 12 -17 28 -7 15 -37 46 -67 70 -45 34 -56
50 -61 80 -9 55 -15 62 -72 81 -34 11 -85 45 -148 97 -138 113 -135 111 -135
83 0 -77 -102 -187 -266 -285 -63 -37 -113 -73 -111 -79 2 -5 53 -32 113 -58
60 -27 152 -68 205 -93 129 -60 140 -59 212 19 77 82 113 146 128 229 12 69
25 82 49 52 28 -33 -26 -202 -88 -276 -15 -17 -53 -51 -85 -75 -60 -43 -102
-54 -125 -31 -18 18 -24 4 -8 -17 11 -15 27 -19 77 -20 55 -1 92 -13 268 -83
213 -86 265 -97 308 -67 32 22 157 198 253 355 177 289 200 319 260 349 45 23
60 26 83 19 15 -6 24 -14 20 -20 -4 -8 2 -9 18 -5 13 4 32 7 42 7 10 0 15 5
12 10 -4 6 -1 17 5 25 10 12 8 15 -11 16 -22 0 -23 1 -4 9 14 6 2 9 -41 9 -57
1 -64 -2 -97 -34 -33 -32 -41 -35 -94 -35 -75 0 -103 15 -128 67 -27 55 -26
55 -60 26z m384 -47 c-11 -9 -69 -15 -64 -6 3 6 20 10 37 10 17 0 29 -2 27 -4z"/>
<path d="M2775 4628 c-28 -16 -35 -28 -35 -68 0 -58 34 -81 45 -30 4 16 17 45
30 64 13 19 21 37 17 40 -9 9 -35 6 -57 -6z"/>
<path d="M2616 4602 c-16 -26 64 -132 100 -132 18 0 19 -2 -16 74 -25 56 -33
66 -54 66 -14 0 -27 -4 -30 -8z"/>
<path d="M5170 4571 c-30 -8 -30 -6 -11 -236 7 -88 17 -168 22 -177 5 -10 22
-18 37 -19 l27 -1 -25 -8 c-22 -7 -21 -8 13 -9 23 -1 37 4 37 12 1 73 -36 434
-44 439 -13 9 -22 9 -56 -1z"/>
<path d="M1850 4446 c0 -24 6 -78 14 -119 8 -41 24 -141 36 -223 12 -82 28
-178 36 -214 19 -89 106 -360 114 -360 11 0 84 60 92 75 4 7 -12 82 -36 166
-62 222 -106 472 -106 615 0 29 -5 56 -12 62 -11 8 -116 42 -132 42 -3 0 -6
-20 -6 -44z"/>
<path d="M272 4117 c-15 -18 -5 -27 30 -27 18 0 28 5 28 15 0 8 -4 15 -9 15
-5 0 -16 2 -24 5 -7 3 -19 0 -25 -8z"/>
<path d="M5170 4090 c0 -5 12 -16 28 -24 l27 -15 -28 -1 c-44 0 -27 -25 20
-28 27 -2 44 2 53 13 12 15 12 18 -4 27 -13 8 -15 13 -5 24 10 12 3 14 -40 14
-28 0 -51 -4 -51 -10z"/>
<path d="M265 4040 c-3 -5 0 -13 9 -16 21 -8 61 -1 61 11 0 14 -62 19 -70 5z"/>
<path d="M2861 3999 l-44 -19 7 -183 c4 -100 10 -202 14 -226 7 -45 7 -45 67
-63 32 -9 61 -16 63 -14 1 2 -2 41 -7 87 -5 46 -12 149 -16 229 -7 168 -13
210 -29 209 -6 0 -31 -9 -55 -20z"/>
<path d="M2516 3986 c-17 -27 -90 -80 -131 -96 -23 -9 -26 -7 -32 20 -7 37
-23 40 -23 4 0 -19 8 -28 35 -40 33 -13 35 -17 35 -59 l0 -45 69 51 c39 28 74
56 79 62 10 14 3 127 -8 127 -4 0 -15 -11 -24 -24z"/>
<path d="M5199 4003 c-17 -4 -34 -58 -23 -74 8 -13 88 -11 102 3 20 20 13 28
-25 28 l-38 0 33 20 c17 11 32 22 32 25 0 6 -57 5 -81 -2z"/>
<path d="M286 3983 l-29 -5 6 -156 c4 -86 10 -777 14 -1535 l6 -1377 34 0 34
0 -3 499 -3 499 -22 24 c-26 28 -30 50 -7 41 8 -3 25 4 38 16 19 18 31 21 58
16 43 -8 108 17 108 41 0 13 -6 15 -27 10 -16 -4 -59 -10 -98 -14 -38 -4 -77
-11 -85 -15 -8 -5 -2 3 14 18 l28 26 -6 887 c-6 859 -10 1034 -24 1031 -4 -1
-20 -4 -36 -6z"/>
<path d="M2607 3954 c-11 -12 -8 -41 6 -53 22 -17 55 12 41 36 -12 19 -36 28
-47 17z"/>
<path d="M2740 3915 l-34 -25 26 0 c26 0 58 22 58 41 0 15 -14 10 -50 -16z"/>
<path d="M5179 3896 c-1 -3 -1 -18 -2 -33 -1 -27 1 -28 44 -28 42 0 44 1 44
30 0 28 -3 30 -42 33 -24 2 -43 1 -44 -2z"/>
<path d="M2983 3789 c8 -112 22 -169 43 -169 26 0 88 31 117 58 l27 26 -67 69
c-38 38 -81 78 -97 90 l-29 21 6 -95z"/>
<path d="M2643 3849 c-28 -8 -32 -13 -28 -37 2 -15 7 -67 11 -115 5 -75 9 -90
27 -102 35 -22 138 -48 149 -37 6 6 4 63 -4 156 l-12 146 -56 -1 c-30 0 -69
-5 -87 -10z"/>
<path d="M3363 3850 c-29 -12 -53 -60 -53 -109 0 -35 38 -163 53 -178 3 -3 24
10 46 28 39 33 41 36 40 94 -1 119 -35 184 -86 165z"/>
<path d="M5180 3800 c-24 -15 2 -32 46 -28 27 2 40 8 42 21 3 14 -4 17 -35 17
-21 0 -45 -5 -53 -10z"/>
<path d="M2470 3760 c-30 -22 -61 -38 -68 -35 -13 5 18 -56 43 -83 17 -18 110
-28 120 -12 9 14 8 99 -1 143 -8 37 -28 34 -94 -13z"/>
<path d="M5180 3740 c0 -5 6 -10 13 -10 7 -1 5 -6 -5 -14 -33 -25 -21 -37 32
-34 50 3 70 20 30 26 -20 3 -20 4 2 22 l23 19 -47 1 c-27 0 -48 -4 -48 -10z"/>
<path d="M3190 3663 c-13 -13 -59 -45 -102 -70 -76 -43 -94 -67 -63 -80 36
-13 225 108 225 145 0 6 -8 16 -18 21 -13 7 -23 4 -42 -16z"/>
<path d="M5200 3650 c-22 -7 -20 -8 15 -9 22 0 47 4 55 9 11 7 8 9 -15 9 -16
-1 -41 -5 -55 -9z"/>
<path d="M5199 3620 c-13 -7 -18 -32 -23 -102 -4 -51 -14 -145 -22 -209 -9
-63 -14 -135 -12 -159 3 -39 6 -45 33 -52 20 -5 34 -3 43 6 18 18 38 144 51
318 16 217 17 208 -21 208 -18 0 -40 -5 -49 -10z"/>
<path d="M2239 3590 c-25 -4 -59 -15 -76 -23 -103 -54 -406 -335 -522 -485
-31 -40 -71 -92 -88 -115 -51 -66 -83 -136 -83 -183 0 -36 5 -47 39 -77 70
-63 159 -70 352 -26 187 43 378 197 418 337 7 23 5 37 -10 61 -10 17 -16 31
-14 31 3 0 31 -21 63 -47 56 -46 244 -173 256 -173 3 0 34 -19 69 -43 34 -24
110 -62 169 -86 63 -25 112 -51 121 -64 14 -21 15 -21 41 -3 34 22 45 13 26
-21 -28 -48 -42 -49 -87 -3 -25 25 -49 40 -60 38 -16 -3 -18 -21 -23 -198 l-5
-195 -39 -58 c-52 -76 -92 -97 -186 -97 -67 0 -72 2 -111 37 -63 57 -106 129
-139 229 -28 88 -70 330 -70 406 0 40 -8 68 -20 68 -4 0 -26 -25 -50 -54 l-42
-55 26 -173 c14 -96 33 -199 41 -231 36 -138 126 -258 238 -318 50 -26 76 -33
138 -37 105 -6 138 7 218 87 99 97 113 135 120 307 5 110 10 146 22 160 9 11
28 40 43 65 l26 46 110 7 c60 4 135 14 166 22 170 44 273 141 304 287 7 32 8
17 6 -63 -4 -83 -13 -139 -46 -265 -79 -299 -197 -841 -186 -852 3 -3 35 12
72 32 51 29 82 39 129 43 l62 4 6 197 c4 108 12 257 18 331 7 81 9 229 6 370
-6 263 -23 374 -75 483 -30 63 -82 127 -102 127 -13 0 -6 -13 54 -103 48 -72
66 -121 65 -177 0 -32 -2 -30 -15 20 -24 89 -80 178 -163 258 -53 51 -83 72
-101 72 -31 0 -159 -60 -179 -83 -14 -17 -6 -23 72 -50 9 -4 17 -12 17 -18 0
-23 -99 8 -265 83 -49 23 -141 59 -204 81 l-113 39 -39 -38 c-57 -56 -73 -106
-66 -212 8 -140 70 -300 161 -416 25 -33 44 -61 42 -64 -15 -14 -129 100 -185
184 -47 72 -75 208 -69 344 5 114 5 114 73 206 15 21 0 27 -93 40 -98 14 -194
15 -263 4z"/>
<path d="M3247 3566 c-20 -19 -78 -51 -128 -72 -82 -34 -89 -39 -73 -51 28
-21 56 -16 146 26 45 21 96 43 111 50 33 13 34 46 2 67 -18 11 -24 9 -58 -20z"/>
<path d="M3418 3564 c-16 -8 -28 -21 -28 -30 0 -13 3 -12 24 1 13 9 27 23 30
31 6 17 8 17 -26 -2z"/>
<path d="M3442 3538 c-16 -16 -15 -63 2 -78 8 -6 25 -10 38 -8 20 3 23 9 23
48 0 41 -2 45 -25 48 -14 2 -31 -3 -38 -10z"/>
<path d="M5135 3040 c3 -5 23 -10 43 -9 30 0 33 2 17 9 -28 12 -67 12 -60 0z"/>
<path d="M2303 3004 c-8 -22 4 -245 18 -321 l11 -63 193 0 c114 0 205 4 224
11 59 21 50 96 -14 128 -17 8 -78 43 -136 78 -59 35 -111 63 -116 63 -5 0 -41
27 -81 60 -75 64 -89 70 -99 44z"/>
<path d="M5145 3000 c-18 -7 -18 -9 -3 -15 24 -10 71 -2 76 13 4 14 -41 16
-73 2z"/>
<path d="M5137 2947 c-14 -10 -21 -35 -29 -103 -12 -119 -62 -411 -94 -552
-31 -138 -30 -157 11 -157 41 0 47 15 99 266 25 118 56 266 70 329 13 63 26
140 28 170 l3 55 -35 3 c-19 2 -43 -3 -53 -11z"/>
<path d="M1371 2755 c-59 -71 -185 -256 -209 -308 -11 -23 -45 -77 -77 -119
-65 -90 -86 -100 -156 -75 -83 30 -106 22 -143 -50 -13 -25 -27 -35 -73 -48
-67 -20 -144 -57 -162 -79 -30 -36 14 -70 120 -92 88 -18 103 -28 95 -66 -7
-34 -2 -35 77 -3 57 24 116 36 240 51 38 4 50 10 57 29 17 46 30 38 30 -19 l0
-56 56 0 c53 0 55 1 70 35 7 19 14 54 14 77 1 24 7 60 15 82 10 30 11 44 2 63
-14 31 -18 28 178 138 82 46 179 104 215 129 36 25 85 57 110 72 78 47 230
176 230 195 0 5 -17 -1 -37 -14 -52 -32 -87 -45 -168 -62 -169 -35 -379 -2
-416 66 -6 12 -14 40 -18 64 l-6 42 -44 -52z m-519 -528 c-30 -32 -28 -61 4
-76 52 -24 331 -39 409 -22 20 4 31 14 36 31 6 20 7 16 6 -15 -2 -37 -4 -40
-42 -48 -22 -5 -116 -7 -210 -4 -174 4 -223 14 -254 50 -25 31 15 107 56 107
14 0 13 -3 -5 -23z m423 -77 c-3 -5 -10 -10 -16 -10 -5 0 -9 5 -9 10 0 6 7 10
16 10 8 0 12 -4 9 -10z"/>
<path d="M2114 2629 c-46 -60 -68 -98 -61 -106 8 -7 107 46 113 62 3 7 2 32
-3 56 l-8 42 -41 -54z"/>
<path d="M2468 2561 c-48 -4 -93 -12 -100 -19 -26 -26 35 -201 89 -257 50 -52
121 -95 155 -95 16 0 51 12 79 26 73 36 89 78 92 231 l2 118 -115 1 c-63 1
-154 -2 -202 -5z"/>
<path d="M2080 2488 c-37 -25 -138 -206 -185 -333 -70 -186 -98 -273 -120
-382 -22 -104 -23 -125 -13 -177 14 -76 152 -352 257 -516 75 -117 79 -126 63
-143 -15 -17 -11 -23 73 -106 64 -62 121 -134 198 -247 60 -87 118 -171 129
-186 28 -36 12 -55 -53 -64 -27 -4 -47 -11 -46 -18 1 -6 -6 -10 -15 -8 -27 4
-22 -24 8 -47 22 -17 41 -21 109 -21 88 0 237 22 279 42 24 10 31 20 27 41 -1
5 4 7 11 5 7 -3 14 -14 16 -25 4 -25 -58 -53 -180 -83 -181 -44 -302 -35 -330
25 -10 22 -8 29 12 50 13 14 29 25 37 25 7 0 13 5 13 10 0 20 -65 -17 -85 -47
-14 -22 -40 -40 -85 -59 -36 -15 -92 -42 -125 -59 -50 -28 -67 -32 -105 -28
-45 5 -48 3 -105 -51 -54 -51 -58 -58 -42 -67 25 -14 47 -4 47 21 0 52 42 78
70 45 14 -17 0 -21 -17 -4 -8 8 -14 5 -23 -11 -26 -49 58 -86 124 -55 25 12
47 15 75 10 27 -4 48 -2 70 10 21 11 81 19 193 26 90 5 192 16 228 24 l65 13
23 -29 c36 -44 116 -38 142 11 8 14 5 36 -12 85 l-21 67 31 25 c18 13 32 31
32 39 0 22 -46 61 -80 67 -27 6 -31 13 -61 109 -17 57 -46 162 -64 233 -18 72
-53 207 -78 300 -25 94 -51 189 -57 213 -13 50 -40 58 -40 12 0 -36 -51 -177
-85 -235 -32 -55 -95 -110 -152 -131 -41 -16 -47 -16 -79 -1 -41 20 -49 52 -9
37 96 -37 286 197 302 371 7 79 -17 162 -73 255 -65 109 -136 163 -214 164
-30 1 -32 2 -16 12 11 6 45 8 82 5 l62 -5 115 117 c63 64 120 127 127 140 14
27 20 20 -79 78 -117 69 -211 207 -256 373 -9 36 -21 73 -26 83 -13 23 -49 21
-89 -5z"/>
<path d="M4980 2097 c0 -9 7 -23 16 -31 20 -21 41 -21 24 -1 -10 13 -9 15 11
15 29 0 14 16 -23 25 -22 6 -28 4 -28 -8z"/>
<path d="M4975 2040 c3 -5 16 -10 28 -9 21 0 21 1 2 9 -28 12 -37 12 -30 0z"/>
<path d="M4960 2017 c0 -2 -16 -50 -36 -106 -28 -81 -33 -105 -23 -117 9 -11
8 -14 -5 -14 -29 0 -17 -18 20 -30 36 -12 60 -6 35 9 -11 7 -9 13 6 28 12 12
30 59 43 113 22 90 22 94 5 107 -17 12 -45 18 -45 10z"/>
<path d="M480 1993 c-40 -21 -64 -78 -39 -94 21 -13 33 -5 39 26 4 21 13 30
40 39 38 12 47 39 15 44 -11 1 -36 -6 -55 -15z"/>
<path d="M370 1971 c-12 -23 -5 -47 16 -55 16 -6 34 22 34 53 0 27 -35 28 -50
2z"/>
<path d="M560 1960 c-11 -7 -12 -12 -4 -17 7 -5 13 -17 15 -27 7 -32 30 -39
91 -27 64 14 95 32 83 51 -5 8 -20 10 -44 6 -76 -12 -76 -12 -73 7 2 13 -4 17
-25 17 -15 0 -35 -5 -43 -10z"/>
<path d="M513 1914 c-3 -8 -1 -20 5 -26 15 -15 43 -2 36 16 -8 21 -34 28 -41
10z"/>
<path d="M3501 1855 c-85 -44 -127 -75 -103 -75 7 0 43 16 80 35 37 19 91 39
121 45 62 12 72 17 51 30 -28 18 -65 9 -149 -35z"/>
<path d="M3555 1821 c-103 -37 -175 -85 -175 -117 0 -17 10 -12 98 50 23 15
71 35 108 45 37 9 69 22 72 29 5 17 -43 14 -103 -7z"/>
<path d="M3569 1776 c-19 -7 -65 -33 -101 -59 -36 -26 -71 -47 -77 -47 -31 0
-37 -97 -24 -351 l6 -127 42 83 c49 96 124 213 152 237 19 17 21 17 65 -11 25
-16 75 -54 112 -86 69 -58 94 -65 62 -17 -34 52 -134 268 -150 323 -13 45 -33
73 -49 69 -1 -1 -18 -7 -38 -14z"/>
<path d="M4872 1729 c4 -13 58 -32 67 -24 8 9 -13 23 -43 31 -22 5 -28 4 -24
-7z"/>
<path d="M4870 1676 c0 -8 -4 -16 -9 -18 -9 -3 -66 -136 -116 -273 -18 -49
-49 -127 -69 -172 -78 -176 -146 -417 -146 -514 0 -94 16 -95 23 -1 7 93 26
149 115 340 38 81 72 156 76 167 4 11 27 65 51 120 61 137 126 316 119 326 -3
5 1 9 8 9 17 1 -21 30 -39 30 -7 0 -13 -6 -13 -14z"/>
<path d="M305 891 c-43 -9 -32 -26 17 -26 33 0 44 4 46 18 4 18 -9 20 -63 8z"/>
<path d="M264 829 c-2 -4 0 -10 6 -14 6 -4 7 -22 4 -44 -5 -31 -1 -48 22 -86
l27 -47 18 23 c37 49 44 78 27 123 -14 37 -18 41 -57 47 -23 3 -44 2 -47 -2z
m76 -59 c0 -5 -10 -10 -22 -10 -19 0 -20 2 -8 10 19 13 30 13 30 0z"/>
</g>
</svg>
